<svg xmlns="http://www.w3.org/2000/svg" xmlns:xlink="http://www.w3.org/1999/xlink" width="1080" zoomAndPan="magnify" viewBox="0 0 810 1439.999935" height="1920" preserveAspectRatio="xMidYMid meet" version="1.0"><defs><g/></defs><g fill="#ff00ff" fill-opacity="1"><g transform="translate(89.31264, 733.687476)"><g><path d="M 25.726562 -87.773438 L 62.046875 -87.773438 L 62.046875 -18.160156 L 80.207031 -18.160156 L 80.207031 -87.773438 L 62.046875 -87.773438 L 62.046875 -105.933594 L 7.566406 -105.933594 L 7.566406 0 L 62.046875 0 L 62.046875 -18.160156 L 25.726562 -18.160156 Z M 25.726562 -87.773438 "/></g></g></g><g fill="#00ffff" fill-opacity="1"><g transform="translate(100.692716, 736.524828)"><g><path d="M 25.726562 -87.773438 L 62.046875 -87.773438 L 62.046875 -18.160156 L 80.207031 -18.160156 L 80.207031 -87.773438 L 62.046875 -87.773438 L 62.046875 -105.933594 L 7.566406 -105.933594 L 7.566406 0 L 62.046875 0 L 62.046875 -18.160156 L 25.726562 -18.160156 Z M 25.726562 -87.773438 "/></g></g></g><g fill="#3b1b72" fill-opacity="1"><g transform="translate(95.002679, 735.10614)"><g><path d="M 25.726562 -87.773438 L 62.046875 -87.773438 L 62.046875 -18.160156 L 80.207031 -18.160156 L 80.207031 -87.773438 L 62.046875 -87.773438 L 62.046875 -105.933594 L 7.566406 -105.933594 L 7.566406 0 L 62.046875 0 L 62.046875 -18.160156 L 25.726562 -18.160156 Z M 25.726562 -87.773438 "/></g></g></g><g fill="#ff00ff" fill-opacity="1"><g transform="translate(193.129037, 733.687476)"><g><path d="M 7.566406 -18.160156 L 7.566406 0 L 25.726562 0 L 25.726562 -18.160156 Z M 7.566406 -18.160156 "/></g></g></g><g fill="#00ffff" fill-opacity="1"><g transform="translate(204.509114, 736.524828)"><g><path d="M 7.566406 -18.160156 L 7.566406 0 L 25.726562 0 L 25.726562 -18.160156 Z M 7.566406 -18.160156 "/></g></g></g><g fill="#ff3131" fill-opacity="1"><g transform="translate(198.819076, 735.10614)"><g><path d="M 7.566406 -18.160156 L 7.566406 0 L 25.726562 0 L 25.726562 -18.160156 Z M 7.566406 -18.160156 "/></g></g></g><g fill="#ff00ff" fill-opacity="1"><g transform="translate(242.617314, 733.687476)"><g><path d="M 7.566406 -87.773438 L 7.566406 -62.046875 L 25.726562 -62.046875 L 25.726562 -43.886719 L 62.046875 -43.886719 L 62.046875 -18.160156 L 80.207031 -18.160156 L 80.207031 -43.886719 L 62.046875 -43.886719 L 62.046875 -62.046875 L 25.726562 -62.046875 L 25.726562 -87.773438 Z M 25.726562 -18.160156 L 25.726562 -36.320312 L 7.566406 -36.320312 L 7.566406 -18.160156 L 25.726562 -18.160156 L 25.726562 0 L 62.046875 0 L 62.046875 -18.160156 Z M 25.726562 -105.933594 L 25.726562 -87.773438 L 62.046875 -87.773438 L 62.046875 -69.613281 L 80.207031 -69.613281 L 80.207031 -87.773438 L 62.046875 -87.773438 L 62.046875 -105.933594 Z M 25.726562 -105.933594 "/></g></g></g><g fill="#ff00ff" fill-opacity="1"><g transform="translate(346.426833, 733.687476)"><g><path d="M 7.566406 0 L 25.726562 0 L 25.726562 -105.933594 L 7.566406 -105.933594 Z M 7.566406 0 "/></g></g></g><g fill="#ff00ff" fill-opacity="1"><g transform="translate(395.910979, 733.687476)"><g><path d="M 7.566406 -105.933594 L 7.566406 0 L 80.207031 0 L 80.207031 -18.160156 L 25.726562 -18.160156 L 25.726562 -105.933594 Z M 7.566406 -105.933594 "/></g></g></g><g fill="#ff00ff" fill-opacity="1"><g transform="translate(499.720487, 733.687476)"><g><path d="M 43.886719 -18.160156 L 43.886719 -36.320312 L 25.726562 -36.320312 L 25.726562 -105.933594 L 7.566406 -105.933594 L 7.566406 -36.320312 L 25.726562 -36.320312 L 25.726562 -18.160156 L 43.886719 -18.160156 L 43.886719 0 L 62.046875 0 L 62.046875 -18.160156 Z M 80.207031 -105.933594 L 80.207031 -36.320312 L 98.367188 -36.320312 L 98.367188 -105.933594 Z M 62.046875 -36.320312 L 62.046875 -18.160156 L 80.207031 -18.160156 L 80.207031 -36.320312 Z M 62.046875 -36.320312 "/></g></g></g><g fill="#ff00ff" fill-opacity="1"><g transform="translate(621.688906, 733.687476)"><g><path d="M 25.726562 -87.773438 L 62.046875 -87.773438 L 62.046875 -62.046875 L 25.726562 -62.046875 L 25.726562 -87.773438 L 7.566406 -87.773438 L 7.566406 0 L 25.726562 0 L 25.726562 -43.886719 L 62.046875 -43.886719 L 62.046875 0 L 80.207031 0 L 80.207031 -87.773438 L 62.046875 -87.773438 L 62.046875 -105.933594 L 25.726562 -105.933594 Z M 25.726562 -87.773438 "/></g></g></g><g fill="#00ffff" fill-opacity="1"><g transform="translate(253.997391, 736.524828)"><g><path d="M 7.566406 -87.773438 L 7.566406 -62.046875 L 25.726562 -62.046875 L 25.726562 -43.886719 L 62.046875 -43.886719 L 62.046875 -18.160156 L 80.207031 -18.160156 L 80.207031 -43.886719 L 62.046875 -43.886719 L 62.046875 -62.046875 L 25.726562 -62.046875 L 25.726562 -87.773438 Z M 25.726562 -18.160156 L 25.726562 -36.320312 L 7.566406 -36.320312 L 7.566406 -18.160156 L 25.726562 -18.160156 L 25.726562 0 L 62.046875 0 L 62.046875 -18.160156 Z M 25.726562 -105.933594 L 25.726562 -87.773438 L 62.046875 -87.773438 L 62.046875 -69.613281 L 80.207031 -69.613281 L 80.207031 -87.773438 L 62.046875 -87.773438 L 62.046875 -105.933594 Z M 25.726562 -105.933594 "/></g></g></g><g fill="#00ffff" fill-opacity="1"><g transform="translate(357.80691, 736.524828)"><g><path d="M 7.566406 0 L 25.726562 0 L 25.726562 -105.933594 L 7.566406 -105.933594 Z M 7.566406 0 "/></g></g></g><g fill="#00ffff" fill-opacity="1"><g transform="translate(407.291055, 736.524828)"><g><path d="M 7.566406 -105.933594 L 7.566406 0 L 80.207031 0 L 80.207031 -18.160156 L 25.726562 -18.160156 L 25.726562 -105.933594 Z M 7.566406 -105.933594 "/></g></g></g><g fill="#00ffff" fill-opacity="1"><g transform="translate(511.100563, 736.524828)"><g><path d="M 43.886719 -18.160156 L 43.886719 -36.320312 L 25.726562 -36.320312 L 25.726562 -105.933594 L 7.566406 -105.933594 L 7.566406 -36.320312 L 25.726562 -36.320312 L 25.726562 -18.160156 L 43.886719 -18.160156 L 43.886719 0 L 62.046875 0 L 62.046875 -18.160156 Z M 80.207031 -105.933594 L 80.207031 -36.320312 L 98.367188 -36.320312 L 98.367188 -105.933594 Z M 62.046875 -36.320312 L 62.046875 -18.160156 L 80.207031 -18.160156 L 80.207031 -36.320312 Z M 62.046875 -36.320312 "/></g></g></g><g fill="#00ffff" fill-opacity="1"><g transform="translate(633.068982, 736.524828)"><g><path d="M 25.726562 -87.773438 L 62.046875 -87.773438 L 62.046875 -62.046875 L 25.726562 -62.046875 L 25.726562 -87.773438 L 7.566406 -87.773438 L 7.566406 0 L 25.726562 0 L 25.726562 -43.886719 L 62.046875 -43.886719 L 62.046875 0 L 80.207031 0 L 80.207031 -87.773438 L 62.046875 -87.773438 L 62.046875 -105.933594 L 25.726562 -105.933594 Z M 25.726562 -87.773438 "/></g></g></g><g fill="#3b1b72" fill-opacity="1"><g transform="translate(248.307353, 735.10614)"><g><path d="M 7.566406 -87.773438 L 7.566406 -62.046875 L 25.726562 -62.046875 L 25.726562 -43.886719 L 62.046875 -43.886719 L 62.046875 -18.160156 L 80.207031 -18.160156 L 80.207031 -43.886719 L 62.046875 -43.886719 L 62.046875 -62.046875 L 25.726562 -62.046875 L 25.726562 -87.773438 Z M 25.726562 -18.160156 L 25.726562 -36.320312 L 7.566406 -36.320312 L 7.566406 -18.160156 L 25.726562 -18.160156 L 25.726562 0 L 62.046875 0 L 62.046875 -18.160156 Z M 25.726562 -105.933594 L 25.726562 -87.773438 L 62.046875 -87.773438 L 62.046875 -69.613281 L 80.207031 -69.613281 L 80.207031 -87.773438 L 62.046875 -87.773438 L 62.046875 -105.933594 Z M 25.726562 -105.933594 "/></g></g></g><g fill="#3b1b72" fill-opacity="1"><g transform="translate(352.116872, 735.10614)"><g><path d="M 7.566406 0 L 25.726562 0 L 25.726562 -105.933594 L 7.566406 -105.933594 Z M 7.566406 0 "/></g></g></g><g fill="#3b1b72" fill-opacity="1"><g transform="translate(401.601018, 735.10614)"><g><path d="M 7.566406 -105.933594 L 7.566406 0 L 80.207031 0 L 80.207031 -18.160156 L 25.726562 -18.160156 L 25.726562 -105.933594 Z M 7.566406 -105.933594 "/></g></g></g><g fill="#3b1b72" fill-opacity="1"><g transform="translate(505.410526, 735.10614)"><g><path d="M 43.886719 -18.160156 L 43.886719 -36.320312 L 25.726562 -36.320312 L 25.726562 -105.933594 L 7.566406 -105.933594 L 7.566406 -36.320312 L 25.726562 -36.320312 L 25.726562 -18.160156 L 43.886719 -18.160156 L 43.886719 0 L 62.046875 0 L 62.046875 -18.160156 Z M 80.207031 -105.933594 L 80.207031 -36.320312 L 98.367188 -36.320312 L 98.367188 -105.933594 Z M 62.046875 -36.320312 L 62.046875 -18.160156 L 80.207031 -18.160156 L 80.207031 -36.320312 Z M 62.046875 -36.320312 "/></g></g></g><g fill="#3b1b72" fill-opacity="1"><g transform="translate(627.378945, 735.10614)"><g><path d="M 25.726562 -87.773438 L 62.046875 -87.773438 L 62.046875 -62.046875 L 25.726562 -62.046875 L 25.726562 -87.773438 L 7.566406 -87.773438 L 7.566406 0 L 25.726562 0 L 25.726562 -43.886719 L 62.046875 -43.886719 L 62.046875 0 L 80.207031 0 L 80.207031 -87.773438 L 62.046875 -87.773438 L 62.046875 -105.933594 L 25.726562 -105.933594 Z M 25.726562 -87.773438 "/></g></g></g></svg>